<svg width="26" height="26" viewBox="0 0 26 26" fill="none" xmlns="http://www.w3.org/2000/svg">
<g id="&#208;&#159;&#209;&#128;&#208;&#190;&#209;&#132;&#208;&#184;&#208;&#187;&#209;&#140;" clip-path="url(#clip0_6360_244)">
<g id="Layer 2">
<g id="person">
<path id="Vector" d="M13.0001 11.9167C13.8571 11.9167 14.6949 11.6625 15.4076 11.1864C16.1202 10.7102 16.6756 10.0334 17.0036 9.24163C17.3315 8.44982 17.4174 7.57853 17.2502 6.73794C17.0829 5.89736 16.6702 5.12523 16.0642 4.51921C15.4582 3.91318 14.6861 3.50047 13.8455 3.33327C13.0049 3.16606 12.1336 3.25188 11.3418 3.57986C10.55 3.90784 9.8732 4.46325 9.39705 5.17586C8.92089 5.88848 8.66675 6.72628 8.66675 7.58334C8.66675 8.73261 9.12329 9.83481 9.93595 10.6475C10.7486 11.4601 11.8508 11.9167 13.0001 11.9167ZM13.0001 5.41667C13.4286 5.41667 13.8475 5.54374 14.2038 5.78182C14.5601 6.01989 14.8378 6.35828 15.0018 6.75419C15.1658 7.15009 15.2087 7.58574 15.1251 8.00603C15.0415 8.42632 14.8352 8.81239 14.5321 9.1154C14.2291 9.41841 13.8431 9.62477 13.4228 9.70837C13.0025 9.79197 12.5668 9.74906 12.1709 9.58507C11.775 9.42108 11.4366 9.14338 11.1986 8.78707C10.9605 8.43076 10.8334 8.01186 10.8334 7.58334C10.8334 7.0087 11.0617 6.4576 11.468 6.05127C11.8743 5.64494 12.4254 5.41667 13.0001 5.41667Z" fill="#9E9E9E"/>
<path id="Vector_2" d="M13.0001 14.0833C10.9889 14.0833 9.06001 14.8823 7.63786 16.3044C6.2157 17.7266 5.41675 19.6554 5.41675 21.6666C5.41675 21.954 5.53088 22.2295 5.73405 22.4327C5.93721 22.6358 6.21276 22.75 6.50008 22.75C6.7874 22.75 7.06295 22.6358 7.26611 22.4327C7.46928 22.2295 7.58341 21.954 7.58341 21.6666C7.58341 20.2301 8.1541 18.8523 9.16992 17.8365C10.1857 16.8207 11.5635 16.25 13.0001 16.25C14.4367 16.25 15.8144 16.8207 16.8302 17.8365C17.8461 18.8523 18.4167 20.2301 18.4167 21.6666C18.4167 21.954 18.5309 22.2295 18.734 22.4327C18.9372 22.6358 19.2128 22.75 19.5001 22.75C19.7874 22.75 20.063 22.6358 20.2661 22.4327C20.4693 22.2295 20.5834 21.954 20.5834 21.6666C20.5834 19.6554 19.7845 17.7266 18.3623 16.3044C16.9402 14.8823 15.0113 14.0833 13.0001 14.0833Z" fill="#9E9E9E"/>
</g>
</g>
</g>
<defs>
<clipPath id="clip0_6360_244">
<rect width="26" height="26" fill="white"/>
</clipPath>
</defs>
</svg>
