<svg width="26" height="26" viewBox="0 0 26 26" fill="none" xmlns="http://www.w3.org/2000/svg">
<g id="&#208;&#159;&#209;&#128;&#208;&#190;&#209;&#132;&#208;&#184;&#208;&#187;&#209;&#140;" clip-path="url(#clip0_6360_251)">
<g id="Layer 3">
<g id="file">
<path id="Vector" d="M21.3849 9.02414L15.4916 2.52414C15.3903 2.41191 15.2666 2.32213 15.1286 2.26056C14.9905 2.19899 14.8411 2.167 14.6899 2.16664H7.10659C6.74665 2.16234 6.38939 2.22899 6.05521 2.36278C5.72103 2.49657 5.41648 2.69487 5.15895 2.94637C4.90142 3.19787 4.69595 3.49763 4.55427 3.82854C4.4126 4.15945 4.33749 4.51503 4.33325 4.87497V21.125C4.33749 21.4849 4.4126 21.8405 4.55427 22.1714C4.69595 22.5023 4.90142 22.8021 5.15895 23.0536C5.41648 23.3051 5.72103 23.5034 6.05521 23.6372C6.38939 23.7709 6.74665 23.8376 7.10659 23.8333H18.8933C19.2532 23.8376 19.6104 23.7709 19.9446 23.6372C20.2788 23.5034 20.5834 23.3051 20.8409 23.0536C21.0984 22.8021 21.3039 22.5023 21.4456 22.1714C21.5872 21.8405 21.6623 21.4849 21.6666 21.125V9.74997C21.6659 9.48148 21.5655 9.22282 21.3849 9.02414ZM19.1208 9.74997H14.8524C14.6291 9.72798 14.4233 9.61914 14.2795 9.44691C14.1356 9.27467 14.0651 9.05282 14.0833 8.82914V4.3333H14.2024L19.1208 9.74997ZM18.8933 21.6666H7.10659C7.03116 21.671 6.9556 21.6605 6.88426 21.6356C6.81291 21.6108 6.74717 21.5721 6.69081 21.5217C6.63445 21.4714 6.58858 21.4105 6.55582 21.3424C6.52307 21.2743 6.50407 21.2004 6.49992 21.125V4.87497C6.50407 4.79953 6.52307 4.72565 6.55582 4.65756C6.58858 4.58948 6.63445 4.52853 6.69081 4.47821C6.74717 4.42789 6.81291 4.38918 6.88426 4.36432C6.9556 4.33945 7.03116 4.32891 7.10659 4.3333H11.9166V8.82914C11.8991 9.62715 12.198 10.3997 12.748 10.9781C13.298 11.5566 14.0545 11.8939 14.8524 11.9166H19.4999V21.125C19.4958 21.2004 19.4768 21.2743 19.444 21.3424C19.4113 21.4105 19.3654 21.4714 19.309 21.5217C19.2527 21.5721 19.1869 21.6108 19.1156 21.6356C19.0442 21.6605 18.9687 21.671 18.8933 21.6666Z" fill="#9E9E9E"/>
</g>
</g>
</g>
<defs>
<clipPath id="clip0_6360_251">
<rect width="26" height="26" fill="white"/>
</clipPath>
</defs>
</svg>
