<svg width="26" height="26" viewBox="0 0 26 26" fill="none" xmlns="http://www.w3.org/2000/svg">
<g id="&#208;&#159;&#209;&#128;&#208;&#190;&#209;&#132;&#208;&#184;&#208;&#187;&#209;&#140;" clip-path="url(#clip0_6360_237)">
<g id="Layer 3">
<g id="archive">
<path id="Vector" d="M22.75 6.5C22.75 5.63805 22.4076 4.8114 21.7981 4.2019C21.1887 3.59241 20.362 3.25 19.5 3.25H6.50005C5.8457 3.25387 5.20776 3.45518 4.66971 3.82758C4.13165 4.19997 3.71853 4.72611 3.48442 5.33716C3.2503 5.9482 3.20609 6.61568 3.35756 7.25227C3.50904 7.88885 3.84914 8.46489 4.33338 8.905V19.5C4.33338 20.362 4.67579 21.1886 5.28528 21.7981C5.89477 22.4076 6.72142 22.75 7.58338 22.75H18.4167C19.2787 22.75 20.1053 22.4076 20.7148 21.7981C21.3243 21.1886 21.6667 20.362 21.6667 19.5V8.905C22.0054 8.60212 22.2767 8.23159 22.4633 7.81735C22.6499 7.4031 22.7476 6.95433 22.75 6.5ZM6.50005 5.41667H19.5C19.7874 5.41667 20.0629 5.5308 20.2661 5.73397C20.4692 5.93713 20.5834 6.21268 20.5834 6.5C20.5834 6.78732 20.4692 7.06287 20.2661 7.26603C20.0629 7.4692 19.7874 7.58333 19.5 7.58333H6.50005C6.21273 7.58333 5.93718 7.4692 5.73401 7.26603C5.53085 7.06287 5.41671 6.78732 5.41671 6.5C5.41671 6.21268 5.53085 5.93713 5.73401 5.73397C5.93718 5.5308 6.21273 5.41667 6.50005 5.41667ZM19.5 19.5C19.5 19.7873 19.3859 20.0629 19.1827 20.266C18.9796 20.4692 18.704 20.5833 18.4167 20.5833H7.58338C7.29606 20.5833 7.02051 20.4692 6.81735 20.266C6.61418 20.0629 6.50005 19.7873 6.50005 19.5V9.75H19.5V19.5Z" fill="#383FF5"/>
<path id="Vector_2" d="M15.3075 13H10.6925C10.172 13 9.75 13.422 9.75 13.9425V14.2242C9.75 14.7447 10.172 15.1667 10.6925 15.1667H15.3075C15.828 15.1667 16.25 14.7447 16.25 14.2242V13.9425C16.25 13.422 15.828 13 15.3075 13Z" fill="#383FF5"/>
</g>
</g>
</g>
<defs>
<clipPath id="clip0_6360_237">
<rect width="26" height="26" fill="white"/>
</clipPath>
</defs>
</svg>
